<svg width="32" height="32" viewBox="0 0 32 32" fill="none" xmlns="http://www.w3.org/2000/svg">
<path d="M0 6C0 2.68629 2.68629 0 6 0H26C29.3137 0 32 2.68629 32 6V26C32 29.3137 29.3137 32 26 32H6C2.68629 32 0 29.3137 0 26V6Z" fill="url(#paint0_linear_447_132)"/>
<path fill-rule="evenodd" clip-rule="evenodd" d="M14.1688 5.49353C13.7805 5.68694 13.3261 6.17095 13.0543 6.68063C12.943 6.88936 12.4618 8.09566 11.9849 9.36135C11.5079 10.627 10.6892 12.7948 10.1654 14.1785C9.64171 15.5623 9.21317 16.7074 9.21317 16.7231C9.21317 16.7387 9.38828 16.6292 9.60231 16.4797C10.1399 16.1041 11.2611 15.5527 13.4876 14.5693C14.5306 14.1086 15.7544 13.5556 16.2072 13.3406C18.8312 12.0944 20.1432 10.9957 20.1453 10.0423C20.146 9.75028 19.2361 7.23871 19.0691 7.07184C18.9872 6.98992 18.932 6.98677 18.6939 7.05042C17.9333 7.25378 17.306 6.98511 16.1976 5.9813C15.9454 5.75294 15.6257 5.51458 15.4872 5.45173C15.1078 5.27949 14.5639 5.29678 14.1688 5.49353ZM16.1105 6.85756C16.045 6.923 16.0623 6.98572 16.1559 7.02159C16.2072 7.04122 16.2373 7.01949 16.2297 6.96825C16.213 6.85417 16.1616 6.80644 16.1105 6.85756ZM15.1139 7.18371C15.0939 7.21593 15.134 7.27248 15.2029 7.30934C15.2872 7.35447 15.3281 7.35545 15.3281 7.31242C15.3281 7.2773 15.2794 7.2481 15.22 7.2476C15.1276 7.2468 15.1254 7.23791 15.2046 7.18679C15.2602 7.15086 15.2679 7.1266 15.2237 7.12599C15.1832 7.12549 15.1338 7.15142 15.1139 7.18371ZM16.4748 7.26662C16.498 7.32749 16.5325 7.36175 16.5515 7.34274C16.5706 7.32378 16.5516 7.27396 16.5094 7.23204C16.4483 7.17154 16.4413 7.17865 16.4748 7.26662ZM14.6536 7.46973C14.6565 7.54165 14.6712 7.55628 14.6909 7.50708C14.7087 7.4625 14.7065 7.40923 14.686 7.38873C14.6655 7.36823 14.6509 7.40466 14.6536 7.46973ZM15.9007 7.49973C15.89 7.64153 15.9191 7.654 15.9673 7.52831C15.9865 7.47849 15.9814 7.42485 15.9559 7.4091C15.9305 7.39342 15.9056 7.43416 15.9007 7.49973ZM16.116 7.71154C16.1322 7.79643 16.1562 7.86588 16.1692 7.86588C16.1822 7.86588 16.1929 7.79643 16.1929 7.71154C16.1929 7.62666 16.1689 7.5572 16.1397 7.5572C16.1104 7.5572 16.0997 7.62666 16.116 7.71154ZM16.2958 7.72185C16.2282 7.78939 16.2489 7.84532 16.3414 7.84532C16.3891 7.84532 16.4139 7.80828 16.3966 7.76297C16.3604 7.66876 16.3522 7.66543 16.2958 7.72185ZM17.5705 7.85304C17.5297 7.87884 17.5159 7.9286 17.5396 7.96348C17.5667 8.00355 17.6225 7.98583 17.6907 7.91558C17.8012 7.80167 17.7188 7.75877 17.5705 7.85304ZM16.687 8.06139C16.687 8.12362 16.7165 8.17455 16.7524 8.17455C16.7884 8.17455 16.8007 8.14677 16.7796 8.11282C16.7586 8.07887 16.7709 8.05108 16.8069 8.05108C16.8428 8.05108 16.8723 8.02793 16.8723 7.99966C16.8723 7.97132 16.8306 7.94817 16.7796 7.94817C16.7287 7.94817 16.687 7.9991 16.687 8.06139ZM16.394 8.189C16.3814 8.35723 16.5367 8.51867 16.5864 8.38902C16.6057 8.33895 16.5914 8.29802 16.5549 8.29802C16.5184 8.29802 16.5036 8.25864 16.5221 8.21055C16.5405 8.16239 16.5214 8.10992 16.4795 8.09387C16.4362 8.0772 16.3994 8.11813 16.394 8.189ZM13.1439 8.20542C13.1635 8.25635 13.2035 8.29802 13.2327 8.29802C13.2619 8.29802 13.2699 8.25635 13.2504 8.20542C13.2308 8.15449 13.1909 8.11282 13.1616 8.11282C13.1324 8.11282 13.1244 8.15449 13.1439 8.20542ZM16.9176 8.42915C16.9595 8.47138 17.0094 8.49033 17.0283 8.47131C17.0473 8.4523 17.0131 8.41779 16.9522 8.39458C16.8641 8.36112 16.857 8.36816 16.9176 8.42915ZM18.015 8.42149C18.036 8.45545 18.0654 8.48323 18.0804 8.48323C18.0954 8.48323 18.1076 8.45545 18.1076 8.42149C18.1076 8.38754 18.0782 8.35976 18.0422 8.35976C18.0063 8.35976 17.994 8.38754 18.015 8.42149ZM18.3213 8.42563C18.2989 8.46181 18.2973 8.50811 18.3177 8.52848C18.338 8.54885 18.3547 8.53515 18.3547 8.49805C18.3547 8.46094 18.4034 8.41785 18.4628 8.4023C18.5603 8.37686 18.5606 8.3734 18.4664 8.36692C18.409 8.36297 18.3437 8.38939 18.3213 8.42563ZM14.2532 8.53533C14.2318 8.5699 14.2444 8.61676 14.2812 8.63948C14.3762 8.69813 14.4374 8.61781 14.3581 8.53854C14.3138 8.49422 14.2793 8.49317 14.2532 8.53533ZM14.8958 8.57948C14.8958 8.63238 14.924 8.65825 14.9585 8.63695C14.993 8.61559 15.0053 8.57231 14.9857 8.54071C14.9328 8.45508 14.8958 8.47101 14.8958 8.57948ZM16.4223 8.79085C16.3951 8.89494 16.4078 8.90383 16.5078 8.85037C16.6446 8.77721 16.6637 8.66843 16.5398 8.66843C16.4928 8.66843 16.4399 8.7235 16.4223 8.79085ZM18.7602 8.83555C18.7267 8.92352 18.7337 8.93062 18.7947 8.87012C18.837 8.82821 18.856 8.77838 18.8369 8.75943C18.8179 8.74042 18.7834 8.77468 18.7602 8.83555ZM18.4086 8.96168C18.3318 9.05959 18.334 9.06175 18.4319 8.98501C18.5348 8.90432 18.5675 8.85364 18.5167 8.85364C18.5039 8.85364 18.4552 8.90229 18.4086 8.96168ZM18.2312 9.12484C18.2312 9.13818 18.2729 9.16509 18.3238 9.18466C18.3748 9.20417 18.4165 9.19324 18.4165 9.1604C18.4165 9.1275 18.3748 9.10058 18.3238 9.10058C18.2729 9.10058 18.2312 9.11151 18.2312 9.12484ZM18.5292 9.32739C18.5555 9.45661 18.5711 9.47216 18.5891 9.38728C18.6025 9.32424 18.5864 9.24572 18.5535 9.21281C18.5148 9.17417 18.5062 9.21473 18.5292 9.32739ZM13.4267 9.40771C13.4711 9.47877 13.5258 9.50673 13.5578 9.47482C13.6288 9.40382 13.5553 9.28578 13.4401 9.28578C13.3663 9.28578 13.364 9.30733 13.4267 9.40771ZM14.0001 9.34752C13.9545 9.42123 14.0756 9.42123 14.2472 9.34752C14.3575 9.30017 14.3529 9.294 14.2045 9.29011C14.1131 9.28776 14.0211 9.31356 14.0001 9.34752ZM16.1341 9.4061C16.0847 9.43734 16.0279 9.45272 16.0079 9.44031C15.9879 9.42796 15.9675 9.47056 15.9626 9.53501C15.955 9.63557 15.9706 9.64175 16.0721 9.57841C16.1372 9.53779 16.204 9.4692 16.2206 9.42604C16.2562 9.33326 16.2512 9.33208 16.1341 9.4061ZM18.1488 9.45043C18.086 9.51315 18.0997 9.59446 18.1731 9.59446C18.209 9.59446 18.2226 9.56878 18.2032 9.53742C18.1838 9.50599 18.2169 9.46759 18.2768 9.45198C18.3631 9.42944 18.3654 9.4221 18.2878 9.41642C18.234 9.41247 18.1714 9.42777 18.1488 9.45043ZM17.732 9.58508C17.8141 9.73824 17.8791 9.75176 17.9756 9.63564C18.0262 9.57458 18.0242 9.55254 17.9677 9.55038C17.9257 9.54878 17.8396 9.52599 17.7762 9.49982C17.674 9.45765 17.669 9.46735 17.732 9.58508ZM19.1422 9.59316C18.9855 9.74429 19.0069 9.87159 19.1644 9.72497C19.236 9.65823 19.2846 9.57785 19.2724 9.5463C19.2603 9.5147 19.2017 9.53581 19.1422 9.59316ZM16.7179 9.65619C16.6969 9.69015 16.7092 9.71793 16.7451 9.71793C16.7811 9.71793 16.8105 9.69015 16.8105 9.65619C16.8105 9.62224 16.7983 9.59446 16.7833 9.59446C16.7683 9.59446 16.7389 9.62224 16.7179 9.65619ZM15.3899 9.72157C15.3899 9.7575 15.4177 9.76979 15.4517 9.7488C15.4856 9.72781 15.5134 9.69842 15.5134 9.68342C15.5134 9.66842 15.4856 9.65619 15.4517 9.65619C15.4177 9.65619 15.3899 9.68564 15.3899 9.72157ZM15.6723 9.76423C15.703 9.78973 15.7489 9.83831 15.7743 9.87227C15.8006 9.90752 15.8208 9.88764 15.8213 9.82597C15.8218 9.7659 15.7766 9.71793 15.7193 9.71793C15.6627 9.71793 15.6415 9.73873 15.6723 9.76423ZM13.2329 9.93913C13.2359 10.011 13.2505 10.0257 13.2702 9.97647C13.2881 9.9319 13.2859 9.87863 13.2653 9.85813C13.2448 9.83763 13.2303 9.87406 13.2329 9.93913ZM17.2478 9.94579C17.2407 10.052 17.3501 10.1031 17.4026 10.0181C17.4293 9.97499 17.4206 9.96228 17.3813 9.9866C17.3449 10.009 17.3011 9.99246 17.2839 9.9498C17.2616 9.8943 17.2512 9.89319 17.2478 9.94579ZM12.6721 10.1501C12.5923 10.2016 12.5939 10.21 12.6839 10.2109C12.7414 10.2114 12.8056 10.184 12.8266 10.1501C12.8749 10.0719 12.7931 10.0719 12.6721 10.1501ZM17.6598 10.2169C17.5192 10.3709 17.5233 10.4303 17.6753 10.4418C17.7432 10.4469 17.7988 10.4234 17.7988 10.3895C17.7988 10.3557 17.8266 10.3452 17.8606 10.3661C17.8945 10.3871 17.9223 10.3594 17.9223 10.3044C17.9223 10.2495 17.8949 10.2215 17.8613 10.2422C17.8263 10.2639 17.8159 10.2391 17.837 10.1842C17.8868 10.0545 17.7923 10.072 17.6598 10.2169ZM15.8558 10.4545C15.8362 10.4861 15.8485 10.5294 15.883 10.5507C15.9176 10.572 15.9458 10.5462 15.9458 10.4933C15.9458 10.3848 15.9087 10.3689 15.8558 10.4545ZM13.9483 10.5478C13.9262 10.6053 13.9612 10.6683 14.038 10.7094C14.1552 10.7721 14.1587 10.7669 14.0891 10.6332C13.9883 10.4397 13.9895 10.4404 13.9483 10.5478ZM20.4018 10.8456C20.3781 11.8703 19.6576 12.8449 18.1519 13.8886C16.6603 14.9225 16.0729 15.4038 15.5915 15.9864C15.0944 16.5881 15.0518 17.0582 15.4632 17.4042C15.836 17.7177 16.4011 17.8786 18.1694 18.1746C20.0258 18.4855 23.2217 19.0932 23.5586 19.1994C23.618 19.2181 23.6667 19.2049 23.6667 19.17C23.6667 19.1245 21.0535 12.1569 20.4575 10.6134C20.4256 10.5307 20.4073 10.607 20.4018 10.8456ZM17.8297 10.7057C17.7855 10.7771 17.7876 10.7786 17.9584 10.7972C18.0338 10.8055 18.0871 10.7758 18.0871 10.7256C18.0871 10.6666 18.0671 10.6598 18.0232 10.7037C17.9415 10.7853 17.8412 10.7869 17.8915 10.7057C17.9125 10.6717 17.9157 10.644 17.8987 10.644C17.8818 10.644 17.8507 10.6717 17.8297 10.7057ZM12.4599 10.7855C12.4831 10.8464 12.5177 10.8806 12.5367 10.8616C12.5557 10.8427 12.5367 10.7929 12.4945 10.7509C12.4335 10.6904 12.4264 10.6975 12.4599 10.7855ZM16.5066 10.8034C16.5095 10.8753 16.5242 10.89 16.5439 10.8408C16.5617 10.7962 16.5595 10.7429 16.539 10.7224C16.5185 10.7019 16.5039 10.7383 16.5066 10.8034ZM15.919 10.8358C15.9479 10.8825 15.9149 10.8903 15.8145 10.8603C15.6722 10.8177 15.6715 10.8192 15.7907 10.9099C15.8583 10.9613 15.9347 10.9903 15.9606 10.9744C16.0315 10.9306 16.0169 10.7674 15.9421 10.7674C15.9062 10.7674 15.8958 10.7982 15.919 10.8358ZM14.7413 10.8909C14.7623 10.9248 14.7917 10.9526 14.8067 10.9526C14.8218 10.9526 14.834 10.9248 14.834 10.8909C14.834 10.8569 14.8045 10.8292 14.7686 10.8292C14.7326 10.8292 14.7203 10.8569 14.7413 10.8909ZM15.5134 10.9526C15.5134 10.9866 15.5429 11.0144 15.5788 11.0144C15.6148 11.0144 15.6271 10.9866 15.6061 10.9526C15.5851 10.9187 15.5557 10.8909 15.5407 10.8909C15.5257 10.8909 15.5134 10.9187 15.5134 10.9526ZM16.9341 10.9799C16.9341 11.0328 16.9619 11.0761 16.9958 11.0761C17.0298 11.0761 17.0576 11.05 17.0576 11.018C17.0576 10.986 17.0298 10.9428 16.9958 10.9218C16.9619 10.9008 16.9341 10.9269 16.9341 10.9799ZM18.8991 10.9331C18.9436 10.9509 18.9969 10.9487 19.0174 10.9282C19.0379 10.9077 19.0015 10.8931 18.9364 10.8958C18.8644 10.8987 18.8498 10.9134 18.8991 10.9331ZM16.0488 10.9938C15.9912 11.0513 15.9974 11.1378 16.059 11.1378C16.0874 11.1378 16.1105 11.0962 16.1105 11.0452C16.1105 10.9403 16.106 10.9366 16.0488 10.9938ZM15.8625 11.2902C15.8433 11.34 15.8543 11.3972 15.8867 11.4173C15.9192 11.4374 15.9458 11.3966 15.9458 11.3267C15.9458 11.1776 15.9115 11.1626 15.8625 11.2902ZM14.924 11.3272C14.9016 11.3635 14.8405 11.3767 14.7881 11.3567C14.7086 11.3262 14.706 11.3359 14.7723 11.4157C14.8159 11.4682 14.8555 11.5036 14.8602 11.4943C14.8651 11.485 14.9062 11.4287 14.9517 11.3693C14.9972 11.31 15.0187 11.2613 14.9996 11.2613C14.9805 11.2613 14.9465 11.291 14.924 11.3272ZM16.4605 11.473C16.4605 11.515 16.4976 11.5494 16.5429 11.5494C16.5882 11.5494 16.6252 11.5292 16.6252 11.5045C16.6252 11.4799 16.5882 11.4455 16.5429 11.4281C16.4976 11.4108 16.4605 11.431 16.4605 11.473ZM17.3047 11.4465C17.3556 11.4794 17.4251 11.5063 17.4591 11.5063C17.4931 11.5063 17.4792 11.4794 17.4282 11.4465C17.3772 11.4136 17.3078 11.3867 17.2738 11.3867C17.2398 11.3867 17.2537 11.4136 17.3047 11.4465ZM14.2369 11.6616C14.2369 11.731 14.2569 11.7366 14.3193 11.6849C14.3646 11.6473 14.4016 11.6061 14.4016 11.5933C14.4016 11.5805 14.3646 11.57 14.3193 11.57C14.2739 11.57 14.2369 11.6112 14.2369 11.6616ZM14.7153 11.6354C14.7127 11.6883 14.7537 11.7855 14.8065 11.8514C14.901 11.9693 14.9017 11.9693 14.8457 11.8478C14.8145 11.7799 14.7735 11.6826 14.7546 11.6317C14.7249 11.5517 14.7195 11.5522 14.7153 11.6354ZM17.5911 11.6626C17.6107 11.7135 17.655 11.7552 17.6894 11.7552C17.7256 11.7552 17.7196 11.716 17.6753 11.6626C17.633 11.6116 17.5887 11.57 17.577 11.57C17.5653 11.57 17.5716 11.6116 17.5911 11.6626ZM15.3899 11.8285L15.2355 11.9595L15.3899 11.9199C15.4748 11.8982 15.5651 11.8799 15.5906 11.8795C15.6161 11.879 15.637 11.837 15.637 11.7861C15.637 11.6615 15.5741 11.6723 15.3899 11.8285ZM15.7336 11.8967C15.7568 11.9576 15.7913 11.9919 15.8103 11.9729C15.8294 11.9539 15.8104 11.9041 15.7682 11.8622C15.7071 11.8017 15.7001 11.8088 15.7336 11.8967ZM12.6721 12.0089C12.5967 12.0632 12.6023 12.0687 12.703 12.0387C12.8088 12.0071 12.8132 12.0129 12.7334 12.0792C12.6822 12.1216 12.6494 12.219 12.6605 12.2954C12.6844 12.4595 12.766 12.4813 12.7765 12.3262C12.7804 12.2668 12.8035 12.1557 12.8278 12.0793C12.8755 11.929 12.8189 11.9034 12.6721 12.0089ZM15.1583 12.0447C15.2177 12.0602 15.315 12.0602 15.3744 12.0447C15.4339 12.0292 15.3853 12.0164 15.2664 12.0164C15.1475 12.0164 15.0988 12.0292 15.1583 12.0447ZM16.6565 12.0632C16.6349 12.0981 16.6597 12.1085 16.7147 12.0874C16.8217 12.0464 16.8412 12.0021 16.7524 12.0021C16.7204 12.0021 16.6773 12.0296 16.6565 12.0632ZM14.8095 12.1359C14.8269 12.1642 14.8118 12.1873 14.7759 12.1873C14.7399 12.1873 14.7105 12.2151 14.7105 12.2491C14.7105 12.3479 14.7982 12.3205 14.875 12.1976C14.9305 12.1087 14.9277 12.0844 14.8617 12.0844C14.8155 12.0844 14.792 12.1076 14.8095 12.1359ZM15.8895 12.177C15.846 12.2583 15.8504 12.2902 15.905 12.2902C15.9468 12.2902 15.9811 12.2393 15.9811 12.177C15.9811 12.1148 15.9741 12.0639 15.9656 12.0639C15.9571 12.0639 15.9229 12.1148 15.8895 12.177ZM11.7147 12.3108C11.7357 12.3448 11.7651 12.3725 11.7802 12.3725C11.7952 12.3725 11.8074 12.3448 11.8074 12.3108C11.8074 12.2768 11.7779 12.2491 11.742 12.2491C11.706 12.2491 11.6937 12.2768 11.7147 12.3108ZM12.5448 12.3935C12.5765 12.4769 12.5876 12.5599 12.5694 12.578C12.5513 12.5963 12.6017 12.5933 12.6815 12.5715C12.7964 12.5401 12.8041 12.5272 12.7185 12.5094C12.659 12.4971 12.6104 12.449 12.6104 12.4025C12.6104 12.3561 12.5826 12.301 12.5488 12.2801C12.5084 12.2551 12.507 12.2941 12.5448 12.3935ZM15.9644 12.3938C15.7399 12.545 15.6588 12.6812 15.7933 12.6812C15.8432 12.6812 15.884 12.6521 15.884 12.6165C15.884 12.581 15.9605 12.4846 16.0539 12.4024C16.2615 12.2197 16.2276 12.2165 15.9644 12.3938ZM12.8574 12.3725C12.8574 12.4065 12.8869 12.4343 12.9228 12.4343C12.9588 12.4343 12.9711 12.4065 12.9501 12.3725C12.9291 12.3386 12.8997 12.3108 12.8847 12.3108C12.8697 12.3108 12.8574 12.3386 12.8574 12.3725ZM14.7607 12.4764C14.8052 12.4943 14.8585 12.4921 14.879 12.4716C14.8995 12.4511 14.8631 12.4365 14.798 12.4391C14.726 12.4421 14.7114 12.4567 14.7607 12.4764ZM15.1119 12.8047C15.1329 12.8386 15.1623 12.8664 15.1773 12.8664C15.1924 12.8664 15.2046 12.8386 15.2046 12.8047C15.2046 12.7707 15.1751 12.7429 15.1392 12.7429C15.1032 12.7429 15.0909 12.7707 15.1119 12.8047ZM12.6413 12.9281C12.6203 12.9621 12.6325 12.9899 12.6685 12.9899C12.7044 12.9899 12.7339 12.9621 12.7339 12.9281C12.7339 12.8942 12.7217 12.8664 12.7067 12.8664C12.6917 12.8664 12.6623 12.8942 12.6413 12.9281ZM13.3258 12.9199C13.2992 12.9629 13.2941 13.0148 13.3145 13.0351C13.3698 13.0904 13.4301 13.0091 13.4002 12.9196C13.3793 12.8569 13.3647 12.8569 13.3258 12.9199ZM12.4251 12.9935C12.4251 13.0295 12.4529 13.0417 12.4868 13.0208C12.5208 12.9998 12.5486 12.9704 12.5486 12.9554C12.5486 12.9404 12.5208 12.9281 12.4868 12.9281C12.4529 12.9281 12.4251 12.9576 12.4251 12.9935ZM20.2077 13.1114C20.2077 13.1443 20.2494 13.1552 20.3004 13.1357C20.3513 13.1161 20.393 13.0892 20.393 13.0759C20.393 13.0625 20.3513 13.0516 20.3004 13.0516C20.2494 13.0516 20.2077 13.0785 20.2077 13.1114ZM14.2665 13.4025C14.3111 13.4203 14.3644 13.4181 14.3849 13.3976C14.4054 13.3771 14.3689 13.3625 14.3038 13.3652C14.2319 13.3681 14.2172 13.3828 14.2665 13.4025ZM20.6762 13.7703C20.6447 13.8523 20.6541 13.8577 20.7253 13.7986C20.7936 13.7419 20.8206 13.7434 20.8454 13.8053C20.8657 13.856 20.8792 13.8457 20.8823 13.777C20.8885 13.6403 20.7281 13.6351 20.6762 13.7703ZM10.85 13.7924C10.829 13.8264 10.8413 13.8542 10.8772 13.8542C10.9132 13.8542 10.9427 13.8264 10.9427 13.7924C10.9427 13.7585 10.9304 13.7307 10.9154 13.7307C10.9004 13.7307 10.871 13.7585 10.85 13.7924ZM19.4736 13.9115C19.4205 13.9444 19.4141 13.9762 19.4556 14.0018C19.4909 14.0236 19.5384 14.0113 19.5611 13.9746C19.6178 13.8828 19.5727 13.8503 19.4736 13.9115ZM20.3758 14.057C20.3578 14.1039 20.3916 14.1364 20.4584 14.1364C20.5436 14.1364 20.5552 14.1168 20.5056 14.057C20.4693 14.0134 20.4321 13.9776 20.423 13.9776C20.4138 13.9776 20.3925 14.0134 20.3758 14.057ZM20.7715 14.2184C20.725 14.2479 20.6972 14.3033 20.71 14.3415C20.7229 14.3804 20.7673 14.3564 20.8107 14.2869C20.8972 14.1485 20.8932 14.1414 20.7715 14.2184ZM18.9724 14.3481C18.9724 14.382 19.0018 14.4098 19.0378 14.4098C19.0737 14.4098 19.086 14.382 19.065 14.3481C19.044 14.3141 19.0146 14.2863 18.9996 14.2863C18.9846 14.2863 18.9724 14.3141 18.9724 14.3481ZM11.4986 14.5369C11.4986 14.5728 11.5264 14.5851 11.5603 14.5641C11.5943 14.5431 11.6221 14.5137 11.6221 14.4987C11.6221 14.4837 11.5943 14.4715 11.5603 14.4715C11.5264 14.4715 11.4986 14.501 11.4986 14.5369ZM19.2812 14.914C19.2812 14.9875 19.2891 15.0362 19.2987 15.022C19.3083 15.0079 19.3534 14.9476 19.3989 14.8882C19.4697 14.7958 19.4672 14.7802 19.3814 14.7802C19.3198 14.7802 19.2812 14.8317 19.2812 14.914ZM19.8062 14.8419C19.8272 14.8759 19.8566 14.9037 19.8717 14.9037C19.8867 14.9037 19.8989 14.8759 19.8989 14.8419C19.8989 14.808 19.8694 14.7802 19.8335 14.7802C19.7975 14.7802 19.7852 14.808 19.8062 14.8419ZM20.2489 15.1301C20.1861 15.1928 20.1998 15.2741 20.2731 15.2741C20.3091 15.2741 20.3229 15.2486 20.3036 15.2176C20.2844 15.1865 20.3037 15.1471 20.3463 15.1299C20.3892 15.1126 20.394 15.0965 20.357 15.0937C20.3202 15.0911 20.2715 15.1074 20.2489 15.1301ZM17.9011 15.3077C17.9199 15.3567 17.9601 15.3815 17.9906 15.3627C18.0672 15.3154 18.0601 15.2928 17.9564 15.253C17.8966 15.2301 17.8782 15.2483 17.9011 15.3077ZM20.0716 15.2797C20.0508 15.3337 20.0576 15.4163 20.0865 15.4631C20.1616 15.5845 20.1944 15.5171 20.1485 15.3358C20.1185 15.2174 20.1006 15.2044 20.0716 15.2797ZM20.5001 15.4669C20.542 15.5092 20.5919 15.5281 20.6108 15.5091C20.6298 15.4901 20.5956 15.4556 20.5347 15.4324C20.4466 15.3989 20.4395 15.4059 20.5001 15.4669ZM16.7275 15.5547C16.7463 15.6037 16.7866 15.6284 16.817 15.6096C16.8936 15.5623 16.8866 15.5397 16.7828 15.4999C16.7231 15.477 16.7047 15.4952 16.7275 15.5547ZM17.1657 15.5452C17.1063 15.5903 17.058 15.6658 17.0585 15.713C17.0593 15.7817 17.0714 15.7804 17.1194 15.7062C17.1726 15.6239 17.1801 15.6239 17.1875 15.7062C17.1921 15.7572 17.1918 15.8217 17.1869 15.8497C17.1821 15.8777 17.2088 15.8816 17.2464 15.8584C17.2839 15.8352 17.2986 15.7521 17.2789 15.6738C17.2574 15.5879 17.2738 15.5189 17.3202 15.5002C17.3626 15.4831 17.3695 15.4677 17.3356 15.4661C17.3016 15.4645 17.2251 15.5001 17.1657 15.5452ZM18.2929 15.557C18.1769 15.6213 18.1654 15.6429 18.2466 15.6436C18.4017 15.6449 18.4432 15.6237 18.456 15.5365C18.4622 15.494 18.4628 15.462 18.4574 15.4653C18.4519 15.4687 18.3779 15.5099 18.2929 15.557ZM21.3698 15.5014C21.4143 15.5193 21.4676 15.5171 21.4881 15.4966C21.5086 15.4761 21.4722 15.4615 21.4071 15.4642C21.3351 15.4671 21.3205 15.4818 21.3698 15.5014ZM20.146 15.6408C20.146 15.6728 20.1738 15.7161 20.2077 15.7371C20.2417 15.7581 20.2695 15.7319 20.2695 15.679C20.2695 15.6261 20.2417 15.5828 20.2077 15.5828C20.1738 15.5828 20.146 15.6089 20.146 15.6408ZM21.1342 15.6445C21.1342 15.6784 21.1342 15.7201 21.1342 15.7371C21.1342 15.8138 21.2206 15.7612 21.233 15.677C21.2406 15.6252 21.2215 15.5828 21.1906 15.5828C21.1596 15.5828 21.1342 15.6105 21.1342 15.6445ZM19.5283 15.7643C19.5283 15.8712 19.637 15.8911 19.7141 15.7981C19.7777 15.7217 19.7685 15.7062 19.6594 15.7062C19.5873 15.7062 19.5283 15.7323 19.5283 15.7643ZM16.6301 15.8657C16.6331 15.9376 16.6477 15.9522 16.6674 15.903C16.6853 15.8585 16.683 15.8052 16.6625 15.7847C16.642 15.7642 16.6275 15.8006 16.6301 15.8657ZM19.2304 15.8738C19.2667 15.9174 19.3208 15.9532 19.3505 15.9532C19.3804 15.9532 19.4048 15.9174 19.4048 15.8738C19.4048 15.8301 19.3507 15.7944 19.2846 15.7944C19.1938 15.7944 19.1806 15.8138 19.2304 15.8738ZM16.3782 15.8914C16.299 15.9425 16.3012 15.9514 16.3936 15.9522C16.453 15.9527 16.5017 15.9254 16.5017 15.8914C16.5017 15.8161 16.4947 15.8161 16.3782 15.8914ZM17.5067 15.9489C17.5116 16.0145 17.5364 16.0552 17.5619 16.0395C17.5873 16.0238 17.5924 15.9701 17.5733 15.9203C17.5251 15.7946 17.496 15.8071 17.5067 15.9489ZM20.0573 15.9095C20.0805 15.9704 20.115 16.0047 20.134 15.9856C20.1531 15.9667 20.1341 15.9169 20.0919 15.8749C20.0308 15.8144 20.0238 15.8215 20.0573 15.9095ZM18.6944 16.0149C18.6734 16.0489 18.6857 16.0766 18.7217 16.0766C18.7576 16.0766 18.7871 16.0489 18.7871 16.0149C18.7871 15.9809 18.7749 15.9532 18.7598 15.9532C18.7448 15.9532 18.7154 15.9809 18.6944 16.0149ZM19.6173 16.0427C19.5015 16.1292 19.5022 16.131 19.6364 16.0973C19.7128 16.078 19.7754 16.0377 19.7754 16.0077C19.7754 15.9342 19.7571 15.9383 19.6173 16.0427ZM16.8105 16.0747C16.8105 16.1076 16.8522 16.1185 16.9032 16.099C16.9541 16.0794 16.9958 16.0525 16.9958 16.0392C16.9958 16.0258 16.9541 16.0149 16.9032 16.0149C16.8522 16.0149 16.8105 16.0418 16.8105 16.0747ZM17.2738 16.2618C17.2948 16.2958 17.3242 16.3236 17.3392 16.3236C17.3542 16.3236 17.3664 16.2958 17.3664 16.2618C17.3664 16.2279 17.337 16.2001 17.301 16.2001C17.2651 16.2001 17.2528 16.2279 17.2738 16.2618ZM16.4708 16.3236C16.4498 16.3575 16.4776 16.3853 16.5326 16.3853C16.5876 16.3853 16.6153 16.4131 16.5943 16.447C16.5733 16.481 16.5708 16.5088 16.5885 16.5088C16.6063 16.5088 16.6506 16.4532 16.687 16.3853C16.7428 16.2812 16.7339 16.2618 16.631 16.2618C16.5639 16.2618 16.4918 16.2896 16.4708 16.3236ZM17.0305 16.5329C17.052 16.6184 17.0367 16.6996 16.9942 16.7258C16.9392 16.7599 16.9418 16.7844 17.0047 16.8242C17.1327 16.9053 17.1812 16.8895 17.1393 16.7803C17.1184 16.726 17.1377 16.659 17.1821 16.6316C17.247 16.5916 17.2435 16.5623 17.1647 16.4835C17.0273 16.3462 16.9874 16.3609 17.0305 16.5329ZM20.1151 16.694C20.1361 16.7279 20.1655 16.7557 20.1805 16.7557C20.1955 16.7557 20.2077 16.7279 20.2077 16.694C20.2077 16.66 20.1783 16.6322 20.1423 16.6322C20.1064 16.6322 20.0941 16.66 20.1151 16.694ZM16.1853 16.7498C16.2321 16.7794 16.2514 16.8346 16.228 16.8723C16.1712 16.9641 16.2725 16.9601 16.3658 16.8668C16.4837 16.749 16.453 16.6939 16.2701 16.6949C16.1493 16.6956 16.1248 16.7115 16.1853 16.7498ZM18.9602 16.9344C18.9402 17.0703 18.9567 17.1073 19.0304 17.0928C19.0834 17.0824 19.1546 17.0709 19.1886 17.0672C19.2225 17.0636 19.2011 17.032 19.1409 16.997C19.0808 16.962 19.0465 16.9092 19.0647 16.8797C19.083 16.8501 19.0728 16.8105 19.0421 16.7915C19.0114 16.7725 18.9745 16.8368 18.9602 16.9344ZM19.4978 16.8181C19.5186 16.8517 19.5015 16.8792 19.4599 16.8792C19.4182 16.8792 19.4006 16.8956 19.4207 16.9157C19.4408 16.9358 19.5041 16.926 19.5613 16.8941C19.6579 16.84 19.658 16.833 19.5628 16.7965C19.5024 16.7734 19.4757 16.7823 19.4978 16.8181ZM18.4831 16.9152C18.4861 16.9871 18.5007 17.0017 18.5204 16.9525C18.5383 16.908 18.5361 16.8547 18.5156 16.8342C18.495 16.8137 18.4805 16.8501 18.4831 16.9152ZM21.4744 16.8785C21.4528 16.9135 21.4775 16.9238 21.5325 16.9028C21.6395 16.8617 21.6591 16.8175 21.5702 16.8175C21.5383 16.8175 21.4951 16.8449 21.4744 16.8785ZM18.1682 17.0349C18.103 17.1135 18.1068 17.1226 18.1916 17.0901C18.2473 17.0687 18.2929 17.0264 18.2929 16.9961C18.2929 16.9167 18.2572 16.9278 18.1682 17.0349ZM19.5283 17.0571C19.5283 17.0911 19.5561 17.136 19.5901 17.157C19.624 17.178 19.6518 17.1674 19.6518 17.1334C19.6518 17.0995 19.624 17.0545 19.5901 17.0335C19.5561 17.0125 19.5283 17.0232 19.5283 17.0571ZM19.9007 17.1237C19.7536 17.2166 19.8539 17.2363 20.0224 17.1475C20.1075 17.1027 20.1353 17.0662 20.0842 17.0662C20.0332 17.0662 19.9507 17.0921 19.9007 17.1237ZM16.965 17.1879C16.944 17.2218 16.9717 17.2496 17.0267 17.2496C17.0817 17.2496 17.1095 17.2218 17.0885 17.1879C17.0675 17.1539 17.0397 17.1261 17.0267 17.1261C17.0137 17.1261 16.986 17.1539 16.965 17.1879ZM17.2076 17.3184C17.2076 17.4553 17.277 17.4725 17.3251 17.3473C17.3435 17.2992 17.3247 17.2468 17.2831 17.2308C17.2401 17.2143 17.2076 17.2519 17.2076 17.3184ZM19.2503 17.3731C19.2713 17.407 19.3163 17.4348 19.3503 17.4348C19.3842 17.4348 19.3949 17.407 19.3739 17.3731C19.3529 17.3391 19.3079 17.3113 19.2739 17.3113C19.24 17.3113 19.2293 17.3391 19.2503 17.3731ZM20.5166 17.7743C20.5166 17.8276 20.5723 17.8669 20.6476 17.8669C20.7572 17.8669 20.7661 17.8517 20.7019 17.7743C20.6596 17.7234 20.6006 17.6817 20.5708 17.6817C20.541 17.6817 20.5166 17.7234 20.5166 17.7743ZM20.5474 18.1756C20.5684 18.2096 20.6117 18.2374 20.6437 18.2374C20.6757 18.2374 20.7019 18.2096 20.7019 18.1756C20.7019 18.1417 20.6585 18.1139 20.6056 18.1139C20.5526 18.1139 20.5264 18.1417 20.5474 18.1756ZM7.09635 22.3064C6.25589 24.5334 5.56842 26.3903 5.5686 26.4327C5.56885 26.4934 6.21265 26.5098 8.58093 26.5098H11.593L11.9148 25.3832C12.0918 24.7635 12.4323 23.5786 12.6715 22.75C12.9106 21.9215 13.0989 21.2375 13.0899 21.2301C13.081 21.2227 12.7679 21.0851 12.3942 20.9243C11.3545 20.4771 9.9697 19.7516 9.51429 19.4155C9.06561 19.0845 8.80458 18.781 8.69538 18.4635C8.62719 18.2651 8.56555 18.4133 7.09635 22.3064ZM9.40181 21.062L9.2687 21.1698H9.45716C9.56173 21.1698 9.64554 21.1371 9.64554 21.0962C9.64554 20.9664 9.53856 20.9514 9.40181 21.062ZM10.8191 22.1884C10.8191 22.2224 10.8469 22.2501 10.8809 22.2501C10.9149 22.2501 10.9427 22.2224 10.9427 22.1884C10.9427 22.1544 10.9149 22.1267 10.8809 22.1267C10.8469 22.1267 10.8191 22.1544 10.8191 22.1884ZM12.1471 22.1884C12.1681 22.2224 12.2114 22.2501 12.2434 22.2501C12.2754 22.2501 12.3015 22.2224 12.3015 22.1884C12.3015 22.1544 12.2582 22.1267 12.2052 22.1267C12.1523 22.1267 12.1261 22.1544 12.1471 22.1884ZM8.4102 22.2501C8.35455 22.2861 8.34689 22.3103 8.39112 22.3109C8.43157 22.3114 8.48185 22.2841 8.50285 22.2501C8.55023 22.1735 8.52886 22.1735 8.4102 22.2501ZM11.2399 22.2923C11.2845 22.3101 11.3378 22.3079 11.3583 22.2874C11.3788 22.2669 11.3423 22.2524 11.2772 22.255C11.2053 22.258 11.1906 22.2726 11.2399 22.2923ZM12.178 22.3772C12.178 22.4132 12.2058 22.4255 12.2398 22.4045C12.2737 22.3835 12.3015 22.3541 12.3015 22.3391C12.3015 22.3241 12.2737 22.3119 12.2398 22.3119C12.2058 22.3119 12.178 22.3413 12.178 22.3772ZM8.71904 22.5007C8.71904 22.5366 8.74683 22.5489 8.7808 22.5279C8.81478 22.5069 8.84257 22.4776 8.84257 22.4626C8.84257 22.4476 8.81478 22.4353 8.7808 22.4353C8.74683 22.4353 8.71904 22.4648 8.71904 22.5007ZM9.21317 22.744C9.21317 22.778 9.24264 22.8057 9.27859 22.8057C9.31453 22.8057 9.32683 22.778 9.30582 22.744C9.28482 22.7101 9.25542 22.6823 9.24041 22.6823C9.2254 22.6823 9.21317 22.7101 9.21317 22.744ZM9.64554 22.8675C9.56636 22.9186 9.56858 22.9275 9.66099 22.9283C9.72041 22.9288 9.76908 22.9014 9.76908 22.8675C9.76908 22.7922 9.7621 22.7922 9.64554 22.8675ZM11.6839 22.8983C11.6415 22.9493 11.5558 22.991 11.4932 22.991C11.3546 22.991 11.2797 23.1234 11.2223 23.4696C11.1984 23.6141 11.1561 23.7183 11.1283 23.7011C11.1005 23.6839 11.0923 23.7255 11.11 23.7934C11.1553 23.9664 11.3032 23.9476 11.3496 23.7631C11.3708 23.6784 11.4126 23.6242 11.4425 23.6427C11.4723 23.6611 11.481 23.5976 11.4617 23.5014C11.4331 23.3583 11.4666 23.2881 11.6473 23.1126C11.7686 22.9947 11.8681 22.8775 11.8685 22.852C11.8696 22.7743 11.7651 22.8004 11.6839 22.8983ZM8.16313 23.4231C8.16313 23.4571 8.19093 23.4848 8.2249 23.4848C8.25887 23.4848 8.28667 23.4571 8.28667 23.4231C8.28667 23.3891 8.25887 23.3614 8.2249 23.3614C8.19093 23.3614 8.16313 23.3891 8.16313 23.4231ZM19.4204 23.8089C19.4363 23.8514 19.624 24.4765 19.8376 25.198L20.226 26.5098H23.3412C25.8059 26.5098 26.4512 26.4937 26.4309 26.4327C26.4124 26.3767 19.5663 23.7431 19.4136 23.7332C19.4015 23.7324 19.4045 23.7665 19.4204 23.8089ZM10.7207 23.8757C10.7409 23.9379 10.7574 24.0282 10.7574 24.0764C10.7574 24.1748 10.8121 24.186 10.9293 24.1118C10.9729 24.0841 10.9908 24.0152 10.9692 23.9587C10.9475 23.9022 10.9017 23.8733 10.8675 23.8944C10.8333 23.9155 10.778 23.8945 10.7446 23.8477C10.6984 23.7829 10.6927 23.7897 10.7207 23.8757ZM10.0161 23.8795C10.0161 23.8928 10.0593 23.9203 10.112 23.9406C10.167 23.9616 10.1918 23.9512 10.1701 23.9163C10.1339 23.8576 10.0161 23.8295 10.0161 23.8795ZM8.5955 24.3455C8.5955 24.3775 8.62299 24.4205 8.65659 24.4413C8.69155 24.4629 8.70193 24.4381 8.68086 24.3832C8.63979 24.2763 8.5955 24.2567 8.5955 24.3455ZM10.2632 24.4762C10.2632 24.5122 10.291 24.5244 10.325 24.5035C10.359 24.4825 10.3868 24.4531 10.3868 24.4381C10.3868 24.4231 10.359 24.4109 10.325 24.4109C10.291 24.4109 10.2632 24.4403 10.2632 24.4762ZM7.08221 24.7195C7.06121 24.7535 7.0735 24.7813 7.10945 24.7813C7.1454 24.7813 7.17486 24.7535 7.17486 24.7195C7.17486 24.6856 7.16263 24.6578 7.14762 24.6578C7.13261 24.6578 7.10321 24.6856 7.08221 24.7195ZM6.94836 24.8712C6.94836 24.9206 6.97202 24.9465 7.00086 24.9286C7.02971 24.9108 7.03736 24.8704 7.01778 24.8387C6.96788 24.758 6.94836 24.7671 6.94836 24.8712ZM7.61674 25.1238C7.62848 25.1845 7.67357 25.2412 7.71686 25.25C7.76016 25.2587 7.76696 25.2517 7.73194 25.2344C7.69692 25.2171 7.68277 25.1794 7.7005 25.1507C7.71822 25.122 7.70186 25.0794 7.66406 25.056C7.62131 25.0296 7.6034 25.0552 7.61674 25.1238ZM8.8847 25.1278C8.90279 25.1749 8.95628 25.2134 9.0036 25.2134C9.13195 25.2134 9.10749 25.109 8.97074 25.0733C8.88729 25.0515 8.8616 25.0677 8.8847 25.1278ZM8.1144 25.2505C8.07054 25.298 8.06196 25.3369 8.09531 25.3369C8.15943 25.3369 8.25226 25.2195 8.21564 25.1846C8.20378 25.1733 8.15819 25.203 8.1144 25.2505ZM7.54546 25.3986C7.54546 25.4326 7.57159 25.4604 7.60358 25.4604C7.63558 25.4604 7.67888 25.4326 7.69988 25.3986C7.72088 25.3647 7.69469 25.3369 7.64176 25.3369C7.58882 25.3369 7.54546 25.3647 7.54546 25.3986ZM11.128 25.4912C11.128 25.5873 11.163 25.6456 11.2206 25.6456C11.2782 25.6456 11.3133 25.5873 11.3133 25.4912C11.3133 25.3952 11.2782 25.3369 11.2206 25.3369C11.163 25.3369 11.128 25.3952 11.128 25.4912ZM7.88518 25.5221C7.90618 25.556 7.93558 25.5838 7.95059 25.5838C7.9656 25.5838 7.97783 25.556 7.97783 25.5221C7.97783 25.4881 7.94837 25.4604 7.91242 25.4604C7.87647 25.4604 7.86418 25.4881 7.88518 25.5221ZM10.3965 25.6395C10.3321 25.6793 10.3375 25.6989 10.4213 25.731C10.5485 25.7798 10.6184 25.7289 10.5365 25.6471C10.5045 25.6151 10.4415 25.6117 10.3965 25.6395ZM8.0396 25.6698C8.0396 25.6832 8.08271 25.7106 8.13546 25.7309C8.19043 25.7519 8.2152 25.7416 8.19358 25.7066C8.15733 25.6479 8.0396 25.6198 8.0396 25.6698ZM23.3205 25.7536C23.3021 25.813 23.2638 25.9059 23.2353 25.96C23.1932 26.0399 23.2116 26.0531 23.3325 26.03C23.4806 26.0017 23.5441 25.8925 23.4124 25.8925C23.3738 25.8925 23.3577 25.838 23.3758 25.769C23.4154 25.6173 23.3669 25.6038 23.3205 25.7536ZM9.15141 25.7999C9.19372 25.8508 9.25468 25.8925 9.28692 25.8925C9.31917 25.8925 9.30385 25.8508 9.25289 25.7999C9.20193 25.749 9.14097 25.7073 9.11737 25.7073C9.09378 25.7073 9.1091 25.749 9.15141 25.7999Z" fill="white"/>
<defs>
<linearGradient id="paint0_linear_447_132" x1="2.99736" y1="1.8153" x2="19.4902" y2="20.1569" gradientUnits="userSpaceOnUse">
<stop stop-color="#FF591E"/>
<stop offset="1" stop-color="#FB432C"/>
</linearGradient>
</defs>
</svg>
